<mxfile host="app.diagrams.net" agent="Mozilla/5.0 (Windows NT 10.0; Win64; x64) AppleWebKit/537.36 (KHTML, like Gecko) Chrome/131.0.0.0 Safari/537.36 Edg/131.0.0.0" version="25.0.3">
  <diagram name="Page-1" id="e7e014a7-5840-1c2e-5031-d8a46d1fe8dd">
    <mxGraphModel dx="1043" dy="578" grid="1" gridSize="10" guides="1" tooltips="1" connect="1" arrows="1" fold="1" page="1" pageScale="1" pageWidth="1169" pageHeight="826" background="none" math="0" shadow="0">
      <root>
        <mxCell id="0" />
        <mxCell id="1" parent="0" />
        <mxCell id="0HiwVtReSsMU2_YjMYDt-61" value="" style="edgeStyle=orthogonalEdgeStyle;rounded=0;orthogonalLoop=1;jettySize=auto;html=1;endArrow=classic;endFill=1;entryX=0.5;entryY=0;entryDx=0;entryDy=0;" parent="1" source="0HiwVtReSsMU2_YjMYDt-52" target="0HiwVtReSsMU2_YjMYDt-89" edge="1">
          <mxGeometry relative="1" as="geometry">
            <mxPoint x="220" y="180" as="targetPoint" />
          </mxGeometry>
        </mxCell>
        <mxCell id="0HiwVtReSsMU2_YjMYDt-62" value="是否已註冊帳號?" style="edgeLabel;html=1;align=center;verticalAlign=middle;resizable=0;points=[];" parent="0HiwVtReSsMU2_YjMYDt-61" vertex="1" connectable="0">
          <mxGeometry relative="1" as="geometry">
            <mxPoint as="offset" />
          </mxGeometry>
        </mxCell>
        <mxCell id="0HiwVtReSsMU2_YjMYDt-52" value="客戶登入" style="html=1;dashed=0;rounded=1;absoluteArcSize=1;arcSize=20;verticalAlign=middle;align=center;whiteSpace=wrap;" parent="1" vertex="1">
          <mxGeometry x="160" y="80" width="120" height="50" as="geometry" />
        </mxCell>
        <mxCell id="0HiwVtReSsMU2_YjMYDt-71" style="edgeStyle=orthogonalEdgeStyle;rounded=0;orthogonalLoop=1;jettySize=auto;html=1;exitX=0.5;exitY=1;exitDx=0;exitDy=0;endArrow=classic;endFill=1;" parent="1" source="0HiwVtReSsMU2_YjMYDt-55" target="0HiwVtReSsMU2_YjMYDt-52" edge="1">
          <mxGeometry relative="1" as="geometry" />
        </mxCell>
        <mxCell id="0HiwVtReSsMU2_YjMYDt-55" value="" style="ellipse;fillColor=strokeColor;html=1;" parent="1" vertex="1">
          <mxGeometry x="200" y="10" width="40" height="40" as="geometry" />
        </mxCell>
        <mxCell id="0HiwVtReSsMU2_YjMYDt-64" style="edgeStyle=orthogonalEdgeStyle;rounded=0;orthogonalLoop=1;jettySize=auto;html=1;exitX=0.5;exitY=1;exitDx=0;exitDy=0;endArrow=classic;endFill=1;" parent="1" source="0HiwVtReSsMU2_YjMYDt-89" target="0HiwVtReSsMU2_YjMYDt-72" edge="1">
          <mxGeometry relative="1" as="geometry">
            <mxPoint x="220" y="310" as="targetPoint" />
            <mxPoint x="220" y="260" as="sourcePoint" />
          </mxGeometry>
        </mxCell>
        <mxCell id="0HiwVtReSsMU2_YjMYDt-66" style="edgeStyle=orthogonalEdgeStyle;rounded=0;orthogonalLoop=1;jettySize=auto;html=1;exitX=1;exitY=0.5;exitDx=0;exitDy=0;endArrow=classic;endFill=1;entryX=0;entryY=0.5;entryDx=0;entryDy=0;" parent="1" source="0HiwVtReSsMU2_YjMYDt-89" target="0HiwVtReSsMU2_YjMYDt-68" edge="1">
          <mxGeometry relative="1" as="geometry">
            <mxPoint x="400" y="150" as="targetPoint" />
            <mxPoint x="260" y="220" as="sourcePoint" />
          </mxGeometry>
        </mxCell>
        <mxCell id="0HiwVtReSsMU2_YjMYDt-67" value="否" style="edgeLabel;html=1;align=center;verticalAlign=middle;resizable=0;points=[];" parent="0HiwVtReSsMU2_YjMYDt-66" vertex="1" connectable="0">
          <mxGeometry x="0.1563" relative="1" as="geometry">
            <mxPoint x="-19" as="offset" />
          </mxGeometry>
        </mxCell>
        <mxCell id="0HiwVtReSsMU2_YjMYDt-158" value="" style="edgeStyle=orthogonalEdgeStyle;rounded=0;orthogonalLoop=1;jettySize=auto;html=1;" parent="1" source="0HiwVtReSsMU2_YjMYDt-68" target="0HiwVtReSsMU2_YjMYDt-157" edge="1">
          <mxGeometry relative="1" as="geometry" />
        </mxCell>
        <mxCell id="0HiwVtReSsMU2_YjMYDt-68" value="註冊" style="html=1;dashed=0;rounded=1;absoluteArcSize=1;arcSize=20;verticalAlign=middle;align=center;whiteSpace=wrap;" parent="1" vertex="1">
          <mxGeometry x="360" y="165" width="120" height="50" as="geometry" />
        </mxCell>
        <mxCell id="0HiwVtReSsMU2_YjMYDt-76" style="edgeStyle=orthogonalEdgeStyle;rounded=0;orthogonalLoop=1;jettySize=auto;html=1;exitX=0.5;exitY=1;exitDx=0;exitDy=0;endArrow=classic;endFill=1;entryX=0.5;entryY=0;entryDx=0;entryDy=0;" parent="1" source="0HiwVtReSsMU2_YjMYDt-72" target="0HiwVtReSsMU2_YjMYDt-96" edge="1">
          <mxGeometry relative="1" as="geometry">
            <mxPoint x="219.20000000000005" y="353.6" as="targetPoint" />
          </mxGeometry>
        </mxCell>
        <mxCell id="0HiwVtReSsMU2_YjMYDt-88" value="是否新增行程?" style="edgeLabel;html=1;align=center;verticalAlign=middle;resizable=0;points=[];" parent="0HiwVtReSsMU2_YjMYDt-76" vertex="1" connectable="0">
          <mxGeometry x="-0.3248" y="3" relative="1" as="geometry">
            <mxPoint as="offset" />
          </mxGeometry>
        </mxCell>
        <mxCell id="0HiwVtReSsMU2_YjMYDt-72" value="查看日程表" style="html=1;dashed=0;rounded=1;absoluteArcSize=1;arcSize=20;verticalAlign=middle;align=center;whiteSpace=wrap;" parent="1" vertex="1">
          <mxGeometry x="160" y="250" width="120" height="50" as="geometry" />
        </mxCell>
        <mxCell id="0HiwVtReSsMU2_YjMYDt-89" value="" style="rhombus;aspect=fixed;" parent="1" vertex="1">
          <mxGeometry x="210" y="180" width="20" height="20" as="geometry" />
        </mxCell>
        <mxCell id="0HiwVtReSsMU2_YjMYDt-99" style="rounded=0;orthogonalLoop=1;jettySize=auto;html=1;exitX=0.5;exitY=1;exitDx=0;exitDy=0;entryX=0.5;entryY=0;entryDx=0;entryDy=0;" parent="1" source="0HiwVtReSsMU2_YjMYDt-96" target="0HiwVtReSsMU2_YjMYDt-104" edge="1">
          <mxGeometry relative="1" as="geometry">
            <mxPoint x="219.9655172413793" y="410" as="targetPoint" />
          </mxGeometry>
        </mxCell>
        <mxCell id="0HiwVtReSsMU2_YjMYDt-101" style="edgeStyle=orthogonalEdgeStyle;rounded=0;orthogonalLoop=1;jettySize=auto;html=1;exitX=1;exitY=0.5;exitDx=0;exitDy=0;entryX=1;entryY=0.75;entryDx=0;entryDy=0;" parent="1" source="0HiwVtReSsMU2_YjMYDt-96" target="0HiwVtReSsMU2_YjMYDt-139" edge="1">
          <mxGeometry relative="1" as="geometry">
            <mxPoint x="280" y="360" as="targetPoint" />
            <Array as="points">
              <mxPoint x="350" y="360" />
              <mxPoint x="350" y="1060" />
              <mxPoint x="280" y="1060" />
            </Array>
          </mxGeometry>
        </mxCell>
        <mxCell id="0HiwVtReSsMU2_YjMYDt-102" value="否" style="edgeLabel;html=1;align=center;verticalAlign=middle;resizable=0;points=[];" parent="0HiwVtReSsMU2_YjMYDt-101" vertex="1" connectable="0">
          <mxGeometry x="-0.0565" y="-1" relative="1" as="geometry">
            <mxPoint x="-39" y="-270" as="offset" />
          </mxGeometry>
        </mxCell>
        <mxCell id="0HiwVtReSsMU2_YjMYDt-96" value="" style="rhombus;aspect=fixed;" parent="1" vertex="1">
          <mxGeometry x="210" y="350" width="20" height="20" as="geometry" />
        </mxCell>
        <mxCell id="0HiwVtReSsMU2_YjMYDt-109" style="edgeStyle=orthogonalEdgeStyle;rounded=0;orthogonalLoop=1;jettySize=auto;html=1;entryX=0.5;entryY=0;entryDx=0;entryDy=0;exitX=0.5;exitY=1;exitDx=0;exitDy=0;" parent="1" source="y3JBYWDsK3w07EpLnPRo-3" target="0HiwVtReSsMU2_YjMYDt-122" edge="1">
          <mxGeometry relative="1" as="geometry">
            <mxPoint x="220" y="600" as="targetPoint" />
            <mxPoint x="220" y="630" as="sourcePoint" />
          </mxGeometry>
        </mxCell>
        <mxCell id="0HiwVtReSsMU2_YjMYDt-111" value="是否生成推薦排程?" style="edgeLabel;html=1;align=center;verticalAlign=middle;resizable=0;points=[];" parent="0HiwVtReSsMU2_YjMYDt-109" vertex="1" connectable="0">
          <mxGeometry x="-0.0121" y="-2" relative="1" as="geometry">
            <mxPoint x="2" y="-1" as="offset" />
          </mxGeometry>
        </mxCell>
        <mxCell id="y3JBYWDsK3w07EpLnPRo-16" style="edgeStyle=orthogonalEdgeStyle;rounded=0;orthogonalLoop=1;jettySize=auto;html=1;entryX=1;entryY=0.5;entryDx=0;entryDy=0;exitX=1;exitY=0.5;exitDx=0;exitDy=0;" edge="1" parent="1" source="y3JBYWDsK3w07EpLnPRo-3" target="0HiwVtReSsMU2_YjMYDt-136">
          <mxGeometry relative="1" as="geometry">
            <Array as="points">
              <mxPoint x="390" y="520" />
              <mxPoint x="390" y="915" />
            </Array>
          </mxGeometry>
        </mxCell>
        <mxCell id="0HiwVtReSsMU2_YjMYDt-104" value="建立行程" style="html=1;dashed=0;rounded=1;absoluteArcSize=1;arcSize=20;verticalAlign=middle;align=center;whiteSpace=wrap;" parent="1" vertex="1">
          <mxGeometry x="160" y="420" width="120" height="50" as="geometry" />
        </mxCell>
        <mxCell id="0HiwVtReSsMU2_YjMYDt-112" value="查看推薦排程" style="html=1;dashed=0;rounded=1;absoluteArcSize=1;arcSize=20;verticalAlign=middle;align=center;whiteSpace=wrap;" parent="1" vertex="1">
          <mxGeometry x="160" y="750" width="120" height="50" as="geometry" />
        </mxCell>
        <mxCell id="0HiwVtReSsMU2_YjMYDt-118" style="rounded=0;orthogonalLoop=1;jettySize=auto;html=1;exitX=0.5;exitY=1;exitDx=0;exitDy=0;entryX=0.5;entryY=0;entryDx=0;entryDy=0;" parent="1" source="0HiwVtReSsMU2_YjMYDt-122" target="0HiwVtReSsMU2_YjMYDt-112" edge="1">
          <mxGeometry relative="1" as="geometry">
            <mxPoint x="220" y="760" as="targetPoint" />
          </mxGeometry>
        </mxCell>
        <mxCell id="0HiwVtReSsMU2_YjMYDt-120" style="edgeStyle=orthogonalEdgeStyle;rounded=0;orthogonalLoop=1;jettySize=auto;html=1;exitX=1;exitY=0.5;exitDx=0;exitDy=0;entryX=1;entryY=0.5;entryDx=0;entryDy=0;" parent="1" source="0HiwVtReSsMU2_YjMYDt-122" target="0HiwVtReSsMU2_YjMYDt-139" edge="1">
          <mxGeometry relative="1" as="geometry">
            <mxPoint x="280" y="710" as="targetPoint" />
            <Array as="points">
              <mxPoint x="340" y="710" />
              <mxPoint x="340" y="1047" />
            </Array>
          </mxGeometry>
        </mxCell>
        <mxCell id="0HiwVtReSsMU2_YjMYDt-121" value="否" style="edgeLabel;html=1;align=center;verticalAlign=middle;resizable=0;points=[];" parent="0HiwVtReSsMU2_YjMYDt-120" vertex="1" connectable="0">
          <mxGeometry x="-0.0565" y="-1" relative="1" as="geometry">
            <mxPoint x="-39" y="-101" as="offset" />
          </mxGeometry>
        </mxCell>
        <mxCell id="0HiwVtReSsMU2_YjMYDt-122" value="" style="rhombus;aspect=fixed;" parent="1" vertex="1">
          <mxGeometry x="210" y="700" width="20" height="20" as="geometry" />
        </mxCell>
        <mxCell id="0HiwVtReSsMU2_YjMYDt-129" style="edgeStyle=orthogonalEdgeStyle;rounded=0;orthogonalLoop=1;jettySize=auto;html=1;entryX=0.5;entryY=0;entryDx=0;entryDy=0;exitX=0.5;exitY=1;exitDx=0;exitDy=0;" parent="1" source="0HiwVtReSsMU2_YjMYDt-112" target="0HiwVtReSsMU2_YjMYDt-135" edge="1">
          <mxGeometry relative="1" as="geometry">
            <mxPoint x="220" y="840" as="targetPoint" />
            <mxPoint x="350" y="820" as="sourcePoint" />
          </mxGeometry>
        </mxCell>
        <mxCell id="0HiwVtReSsMU2_YjMYDt-130" value="是否接受推薦排程?" style="edgeLabel;html=1;align=center;verticalAlign=middle;resizable=0;points=[];" parent="0HiwVtReSsMU2_YjMYDt-129" vertex="1" connectable="0">
          <mxGeometry x="-0.0121" y="-2" relative="1" as="geometry">
            <mxPoint x="-2" y="-1" as="offset" />
          </mxGeometry>
        </mxCell>
        <mxCell id="0HiwVtReSsMU2_YjMYDt-131" style="rounded=0;orthogonalLoop=1;jettySize=auto;html=1;exitX=0.5;exitY=1;exitDx=0;exitDy=0;entryX=0.5;entryY=0;entryDx=0;entryDy=0;" parent="1" source="0HiwVtReSsMU2_YjMYDt-135" target="0HiwVtReSsMU2_YjMYDt-136" edge="1">
          <mxGeometry relative="1" as="geometry">
            <mxPoint x="220" y="890" as="targetPoint" />
          </mxGeometry>
        </mxCell>
        <mxCell id="0HiwVtReSsMU2_YjMYDt-133" style="edgeStyle=orthogonalEdgeStyle;rounded=0;orthogonalLoop=1;jettySize=auto;html=1;exitX=0;exitY=0.5;exitDx=0;exitDy=0;entryX=0;entryY=0.5;entryDx=0;entryDy=0;" parent="1" source="0HiwVtReSsMU2_YjMYDt-135" target="0HiwVtReSsMU2_YjMYDt-122" edge="1">
          <mxGeometry relative="1" as="geometry">
            <mxPoint x="280" y="850" as="targetPoint" />
            <Array as="points">
              <mxPoint x="130" y="850" />
              <mxPoint x="130" y="710" />
            </Array>
          </mxGeometry>
        </mxCell>
        <mxCell id="0HiwVtReSsMU2_YjMYDt-134" value="否" style="edgeLabel;html=1;align=center;verticalAlign=middle;resizable=0;points=[];" parent="0HiwVtReSsMU2_YjMYDt-133" vertex="1" connectable="0">
          <mxGeometry x="-0.0565" y="-1" relative="1" as="geometry">
            <mxPoint as="offset" />
          </mxGeometry>
        </mxCell>
        <mxCell id="0HiwVtReSsMU2_YjMYDt-135" value="" style="rhombus;aspect=fixed;" parent="1" vertex="1">
          <mxGeometry x="210" y="840" width="20" height="20" as="geometry" />
        </mxCell>
        <mxCell id="0HiwVtReSsMU2_YjMYDt-140" value="" style="edgeStyle=orthogonalEdgeStyle;rounded=0;orthogonalLoop=1;jettySize=auto;html=1;entryX=0.5;entryY=0;entryDx=0;entryDy=0;" parent="1" source="0HiwVtReSsMU2_YjMYDt-136" target="y3JBYWDsK3w07EpLnPRo-21" edge="1">
          <mxGeometry relative="1" as="geometry">
            <mxPoint x="220" y="970" as="targetPoint" />
          </mxGeometry>
        </mxCell>
        <mxCell id="0HiwVtReSsMU2_YjMYDt-136" value="維護日程" style="html=1;dashed=0;rounded=1;absoluteArcSize=1;arcSize=20;verticalAlign=middle;align=center;whiteSpace=wrap;" parent="1" vertex="1">
          <mxGeometry x="160" y="890" width="120" height="50" as="geometry" />
        </mxCell>
        <mxCell id="0HiwVtReSsMU2_YjMYDt-149" value="" style="edgeStyle=orthogonalEdgeStyle;rounded=0;orthogonalLoop=1;jettySize=auto;html=1;" parent="1" source="0HiwVtReSsMU2_YjMYDt-139" target="0HiwVtReSsMU2_YjMYDt-148" edge="1">
          <mxGeometry relative="1" as="geometry" />
        </mxCell>
        <mxCell id="0HiwVtReSsMU2_YjMYDt-139" value="執行動態排程" style="whiteSpace=wrap;html=1;dashed=0;rounded=1;arcSize=20;" parent="1" vertex="1">
          <mxGeometry x="160" y="1020" width="120" height="54" as="geometry" />
        </mxCell>
        <mxCell id="0HiwVtReSsMU2_YjMYDt-151" value="" style="edgeStyle=orthogonalEdgeStyle;rounded=0;orthogonalLoop=1;jettySize=auto;html=1;" parent="1" source="0HiwVtReSsMU2_YjMYDt-148" target="0HiwVtReSsMU2_YjMYDt-150" edge="1">
          <mxGeometry relative="1" as="geometry" />
        </mxCell>
        <mxCell id="0HiwVtReSsMU2_YjMYDt-148" value="使用者回饋" style="whiteSpace=wrap;html=1;dashed=0;rounded=1;arcSize=20;" parent="1" vertex="1">
          <mxGeometry x="160" y="1110" width="120" height="60" as="geometry" />
        </mxCell>
        <mxCell id="0HiwVtReSsMU2_YjMYDt-150" value="" style="ellipse;html=1;shape=endState;fillColor=strokeColor;" parent="1" vertex="1">
          <mxGeometry x="205" y="1220" width="30" height="30" as="geometry" />
        </mxCell>
        <mxCell id="0HiwVtReSsMU2_YjMYDt-159" value="" style="edgeStyle=orthogonalEdgeStyle;rounded=0;orthogonalLoop=1;jettySize=auto;html=1;" parent="1" source="0HiwVtReSsMU2_YjMYDt-157" target="0HiwVtReSsMU2_YjMYDt-52" edge="1">
          <mxGeometry relative="1" as="geometry" />
        </mxCell>
        <mxCell id="0HiwVtReSsMU2_YjMYDt-157" value="填寫個性化問卷" style="whiteSpace=wrap;html=1;dashed=0;rounded=1;arcSize=20;" parent="1" vertex="1">
          <mxGeometry x="360" y="80" width="120" height="50" as="geometry" />
        </mxCell>
        <mxCell id="0HiwVtReSsMU2_YjMYDt-169" value="" style="edgeStyle=orthogonalEdgeStyle;rounded=0;orthogonalLoop=1;jettySize=auto;html=1;" parent="1" source="0HiwVtReSsMU2_YjMYDt-160" target="0HiwVtReSsMU2_YjMYDt-165" edge="1">
          <mxGeometry relative="1" as="geometry" />
        </mxCell>
        <mxCell id="0HiwVtReSsMU2_YjMYDt-170" value="是否修改個性化資料" style="edgeLabel;html=1;align=center;verticalAlign=middle;resizable=0;points=[];" parent="0HiwVtReSsMU2_YjMYDt-169" vertex="1" connectable="0">
          <mxGeometry x="0.1517" relative="1" as="geometry">
            <mxPoint as="offset" />
          </mxGeometry>
        </mxCell>
        <mxCell id="0HiwVtReSsMU2_YjMYDt-160" value="" style="ellipse;fillColor=strokeColor;html=1;" parent="1" vertex="1">
          <mxGeometry x="600" y="10" width="40" height="40" as="geometry" />
        </mxCell>
        <mxCell id="0HiwVtReSsMU2_YjMYDt-172" value="" style="edgeStyle=orthogonalEdgeStyle;rounded=0;orthogonalLoop=1;jettySize=auto;html=1;" parent="1" source="0HiwVtReSsMU2_YjMYDt-163" target="0HiwVtReSsMU2_YjMYDt-171" edge="1">
          <mxGeometry relative="1" as="geometry" />
        </mxCell>
        <mxCell id="0HiwVtReSsMU2_YjMYDt-163" value="修改個性化資料" style="whiteSpace=wrap;html=1;dashed=0;rounded=1;arcSize=20;" parent="1" vertex="1">
          <mxGeometry x="560" y="150" width="120" height="50" as="geometry" />
        </mxCell>
        <mxCell id="0HiwVtReSsMU2_YjMYDt-168" value="" style="edgeStyle=orthogonalEdgeStyle;rounded=0;orthogonalLoop=1;jettySize=auto;html=1;" parent="1" source="0HiwVtReSsMU2_YjMYDt-165" target="0HiwVtReSsMU2_YjMYDt-163" edge="1">
          <mxGeometry relative="1" as="geometry" />
        </mxCell>
        <mxCell id="0HiwVtReSsMU2_YjMYDt-173" style="edgeStyle=orthogonalEdgeStyle;rounded=0;orthogonalLoop=1;jettySize=auto;html=1;exitX=1;exitY=0.5;exitDx=0;exitDy=0;entryX=1;entryY=0.5;entryDx=0;entryDy=0;" parent="1" source="0HiwVtReSsMU2_YjMYDt-165" target="0HiwVtReSsMU2_YjMYDt-171" edge="1">
          <mxGeometry relative="1" as="geometry">
            <mxPoint x="719.9999999999998" y="250" as="targetPoint" />
            <Array as="points">
              <mxPoint x="720" y="110" />
              <mxPoint x="720" y="255" />
            </Array>
          </mxGeometry>
        </mxCell>
        <mxCell id="0HiwVtReSsMU2_YjMYDt-165" value="" style="rhombus;aspect=fixed;" parent="1" vertex="1">
          <mxGeometry x="610" y="100" width="20" height="20" as="geometry" />
        </mxCell>
        <mxCell id="0HiwVtReSsMU2_YjMYDt-171" value="" style="ellipse;html=1;shape=endState;fillColor=strokeColor;" parent="1" vertex="1">
          <mxGeometry x="605" y="240" width="30" height="30" as="geometry" />
        </mxCell>
        <mxCell id="y3JBYWDsK3w07EpLnPRo-3" value="" style="rhombus;aspect=fixed;" vertex="1" parent="1">
          <mxGeometry x="210" y="510" width="20" height="20" as="geometry" />
        </mxCell>
        <mxCell id="y3JBYWDsK3w07EpLnPRo-6" style="edgeStyle=orthogonalEdgeStyle;rounded=0;orthogonalLoop=1;jettySize=auto;html=1;entryX=0.524;entryY=0.253;entryDx=0;entryDy=0;entryPerimeter=0;" edge="1" parent="1" source="0HiwVtReSsMU2_YjMYDt-104" target="y3JBYWDsK3w07EpLnPRo-3">
          <mxGeometry relative="1" as="geometry" />
        </mxCell>
        <mxCell id="y3JBYWDsK3w07EpLnPRo-7" value="是否行程衝突?" style="edgeLabel;html=1;align=center;verticalAlign=middle;resizable=0;points=[];" vertex="1" connectable="0" parent="1">
          <mxGeometry x="220" y="490.0028571428571" as="geometry" />
        </mxCell>
        <mxCell id="y3JBYWDsK3w07EpLnPRo-17" value="是" style="edgeLabel;html=1;align=center;verticalAlign=middle;resizable=0;points=[];" vertex="1" connectable="0" parent="1">
          <mxGeometry x="310" y="403" as="geometry">
            <mxPoint x="3" y="134" as="offset" />
          </mxGeometry>
        </mxCell>
        <mxCell id="y3JBYWDsK3w07EpLnPRo-22" style="edgeStyle=orthogonalEdgeStyle;rounded=0;orthogonalLoop=1;jettySize=auto;html=1;" edge="1" parent="1" source="y3JBYWDsK3w07EpLnPRo-21" target="0HiwVtReSsMU2_YjMYDt-139">
          <mxGeometry relative="1" as="geometry" />
        </mxCell>
        <mxCell id="y3JBYWDsK3w07EpLnPRo-21" value="" style="rhombus;aspect=fixed;" vertex="1" parent="1">
          <mxGeometry x="210" y="980" width="20" height="20" as="geometry" />
        </mxCell>
        <mxCell id="y3JBYWDsK3w07EpLnPRo-23" value="是否建立其他排程?" style="edgeLabel;html=1;align=center;verticalAlign=middle;resizable=0;points=[];" vertex="1" connectable="0" parent="1">
          <mxGeometry x="220" y="960" as="geometry" />
        </mxCell>
        <mxCell id="y3JBYWDsK3w07EpLnPRo-24" style="edgeStyle=orthogonalEdgeStyle;rounded=0;orthogonalLoop=1;jettySize=auto;html=1;entryX=0;entryY=0.4;entryDx=0;entryDy=0;entryPerimeter=0;exitX=0;exitY=0.5;exitDx=0;exitDy=0;" edge="1" parent="1" source="y3JBYWDsK3w07EpLnPRo-21" target="0HiwVtReSsMU2_YjMYDt-104">
          <mxGeometry relative="1" as="geometry">
            <Array as="points">
              <mxPoint x="100" y="990" />
              <mxPoint x="100" y="440" />
            </Array>
          </mxGeometry>
        </mxCell>
        <mxCell id="y3JBYWDsK3w07EpLnPRo-25" value="是" style="edgeLabel;html=1;align=center;verticalAlign=middle;resizable=0;points=[];" vertex="1" connectable="0" parent="1">
          <mxGeometry x="141" y="798.3333333333333" as="geometry">
            <mxPoint x="26" y="189" as="offset" />
          </mxGeometry>
        </mxCell>
      </root>
    </mxGraphModel>
  </diagram>
</mxfile>
